<svg xmlns="http://www.w3.org/2000/svg" viewBox="0 0 32 32" fill="none">
  <rect width="32" height="32" rx="8" fill="url(#g)"/>
  <path d="M20 18V10a2 2 0 0 0-1-1.73l-3-1.73a2 2 0 0 0-2 0L11 8.27A2 2 0 0 0 10 10v8a2 2 0 0 0 1 1.73l3 1.73a2 2 0 0 0 2 0l3-1.73A2 2 0 0 0 20 18z" stroke="white" stroke-width="1.5" stroke-linecap="round" stroke-linejoin="round"/>
  <defs>
    <linearGradient id="g" x1="0" y1="0" x2="32" y2="32" gradientUnits="userSpaceOnUse">
      <stop stop-color="#7c3aed"/>
      <stop offset="1" stop-color="#4338ca"/>
    </linearGradient>
  </defs>
</svg>
